<svg width="34" height="61" viewBox="0 0 34 61" fill="none" xmlns="http://www.w3.org/2000/svg">
<path fill-rule="evenodd" clip-rule="evenodd" d="M19.6733 26.746C19.7094 26.6818 19.7485 26.6153 19.7876 26.5511C18.6264 26.4548 17.3328 26.5649 15.0013 26.4227C14.9472 26.4181 14.8268 26.3929 14.6704 26.3287C14.4087 26.2209 13.9905 26.0054 13.6114 25.7257C13.0308 25.2946 12.5736 24.7145 12.7872 24.1527C13.9243 21.1879 14.5681 21.1902 13.7378 15.804C13.7197 15.6939 13.7318 15.7031 13.6746 14.4213C13.6686 14.3067 13.7889 14.2104 13.9363 14.2058C14.0868 14.2035 14.2131 14.2929 14.2161 14.4076C14.2733 15.6572 14.2582 15.6481 14.2763 15.7558C15.1216 21.2475 14.4688 21.2452 13.3106 24.2696C13.2354 24.4645 13.2895 24.6617 13.4069 24.8475C13.5422 25.0584 13.7589 25.2579 13.9905 25.4276C14.4117 25.7394 15.0615 26.0123 15.0615 26.0123C17.4862 26.159 18.8189 26.0467 20.0222 26.159C20.1696 25.916 20.3231 25.6729 20.4795 25.4299C20.4645 25.423 20.4524 25.4138 20.4434 25.4069C20.0884 25.1891 19.9049 24.781 19.8628 24.2857C19.7756 23.2676 20.2419 21.8712 20.3772 21.4286C20.9398 19.6218 21.5385 18.5326 22.0709 17.8929C22.456 17.4274 22.82 17.189 23.1178 17.0789C23.8128 16.8198 24.24 17.1683 24.261 17.4068C24.5167 20.1354 22.829 22.6783 21.2346 25.1822C21.6528 25.1662 22.2183 24.969 22.9945 24.5448C24.4896 23.7262 25.335 23.5015 25.9487 23.5588C26.2856 23.5886 26.5684 23.701 26.8452 23.8615C27.0889 24.0014 27.3325 24.1825 27.6334 24.3705C28.2621 24.7718 31.6586 26.3081 33.1928 27.7068C33.5448 28.0278 33.8005 28.3442 33.9209 28.64C34.0562 28.9771 34.0231 29.2912 33.7824 29.5664C33.7463 29.6077 33.6591 29.6696 33.5057 29.7223C33.2921 29.7934 32.895 29.8782 32.3565 29.931C30.6417 30.0961 27.4228 29.947 24.1286 28.1149C22.4139 27.1611 21.373 26.7736 20.3441 26.6153C20.2659 26.7506 20.1877 26.8836 20.1095 27.0166C20.1095 27.0189 20.1095 27.0189 20.1095 27.0189C20.1666 27.0671 20.2268 27.1152 20.284 27.1679C21.8212 28.5827 22.8802 32.4899 22.3477 35.5396C22.3387 35.5854 22.2755 35.9317 22.1492 36.2183C22.086 36.3627 22.0047 36.4911 21.9115 36.576C21.8513 36.6287 21.7821 36.6677 21.7129 36.6929L21.6227 36.7181L21.5234 36.7273C21.4001 36.7273 21.2497 36.6884 21.0992 36.5645C17.0981 33.2374 17.769 30.1832 19.4567 27.1313C19.3123 27.051 19.1618 27.0006 19.0114 26.9845C18.7256 26.9524 18.4398 27.0487 18.145 27.2734C16.8935 28.2273 15.8737 28.89 15.0735 29.4586C14.174 30.0961 13.5513 30.612 13.1993 31.3113C12.8413 32.0176 12.7571 32.9072 12.9075 34.2853C12.9195 34.3908 12.8262 34.4871 12.6879 34.5054C12.5525 34.5261 12.4171 34.4642 12.378 34.361C12.0772 33.5951 12.0411 33.1159 11.5958 32.616C11.1476 32.1116 10.2872 31.5911 8.36786 30.7243C7.28185 30.2336 6.247 29.6375 5.60923 29.3898C5.52499 29.3554 5.4197 29.3279 5.3475 29.3119C5.36254 29.4311 5.44375 29.6122 5.58815 29.8736C6.76141 32.0244 6.88176 33.7419 11.999 36.2045C12.1554 36.2779 12.2998 36.4224 12.4171 36.6356C12.6337 37.0277 12.7751 37.6881 12.8533 38.4769C13.0579 40.513 12.8684 43.4205 12.7089 44.6174C12.6638 44.9545 12.6066 45.17 12.5735 45.2205L12.5044 45.2893C12.4893 45.2984 12.4412 45.3214 12.36 45.3466C12.1945 45.3993 11.7252 45.5392 11.5778 45.8809C11.5056 46.0505 11.5176 46.2684 11.671 46.5435C11.8515 46.8623 12.2096 47.2475 12.8233 47.7175C13.3196 48.0959 13.4279 48.5889 13.4189 49.3799C13.3948 51.0492 12.9285 54.1608 15.7714 60.7278C15.8196 60.8379 15.7414 60.9548 15.6 60.9892C15.4586 61.0259 15.3051 60.9663 15.257 60.8585C12.378 54.2135 12.8533 51.063 12.8744 49.3776C12.8834 48.731 12.8443 48.3183 12.4382 48.0087C11.0243 46.9287 10.8678 46.2042 11.0634 45.7524C11.2589 45.2984 11.8275 45.0714 12.0982 44.982C12.1133 44.8972 12.1464 44.7412 12.1674 44.5761C12.3239 43.393 12.5134 40.5199 12.3118 38.5067C12.2486 37.8761 12.1494 37.3304 11.9929 36.9566C11.9117 36.7594 11.8305 36.6127 11.7101 36.5531C6.43349 34.0147 6.29814 32.2492 5.08578 30.0319C4.86316 29.6237 4.78793 29.36 4.80899 29.2087C4.812 29.1789 4.82101 29.1513 4.83004 29.1261L4.87517 29.0459L4.95339 28.9702L5.05566 28.9152C5.15494 28.8785 5.29332 28.867 5.46479 28.9014C5.70847 28.9473 6.07251 29.1009 6.50571 29.3119C7.10437 29.6054 7.85947 30.0135 8.64465 30.3666C10.6753 31.2861 11.5718 31.8502 12.0441 32.3822C12.1494 32.5014 12.2336 32.6183 12.3058 32.7353C12.3329 32.2606 12.4111 31.8593 12.5435 31.5062C12.8473 30.6808 13.4249 30.1006 14.3154 29.438C15.1637 28.8028 16.3069 28.0897 17.7599 26.9822C18.2052 26.6406 18.6595 26.5259 19.0896 26.5741C19.2852 26.597 19.4808 26.6543 19.6733 26.746ZM19.8748 27.4408C18.3255 30.3001 17.7509 33.1686 21.4993 36.2848C21.5023 36.2871 21.5054 36.2894 21.5084 36.2917C21.5264 36.2733 21.5475 36.2504 21.5595 36.2297C21.5836 36.1908 21.6077 36.1472 21.6287 36.1013C21.746 35.8445 21.8002 35.5258 21.8092 35.4845C22.1191 33.7166 21.8784 31.6484 21.3188 29.9791C20.9518 28.8945 20.4524 27.9774 19.8748 27.4408ZM20.9789 25.5858C20.8435 25.799 20.7082 26.0146 20.5788 26.2301C21.6287 26.3998 22.6967 26.8056 24.4506 27.7802C27.5913 29.5274 30.6568 29.6764 32.2903 29.5205C32.8168 29.4701 33.2801 29.3371 33.3493 29.3165C33.4816 29.1514 33.4846 28.9633 33.4034 28.7616C33.3011 28.5116 33.0755 28.2456 32.7747 27.9728C31.2645 26.5924 27.9071 25.0836 27.2844 24.6892C26.9926 24.5035 26.755 24.3269 26.5203 24.1917C26.3187 24.077 26.1232 23.9922 25.8825 23.9692C25.344 23.9188 24.625 24.1618 23.3104 24.8795C22.6124 25.2648 22.0529 25.4734 21.6137 25.5537C21.373 25.5996 21.1624 25.6064 20.9789 25.5858ZM20.7262 25.0401C21.3219 24.1045 21.9356 23.1644 22.453 22.2083C23.2863 20.6674 23.8729 19.0898 23.7195 17.4412C23.7165 17.4389 23.6924 17.4205 23.6714 17.4137C23.5962 17.3907 23.4879 17.4022 23.3555 17.4503C23.1178 17.5398 22.8381 17.7415 22.5282 18.113C22.0138 18.7298 21.4452 19.7823 20.9067 21.5249C20.7773 21.94 20.3411 23.2309 20.4013 24.2008C20.4163 24.4393 20.4615 24.6571 20.5547 24.8314C20.5968 24.9139 20.654 24.985 20.7262 25.0401Z" fill="#E61A1A"/>
<path fill-rule="evenodd" clip-rule="evenodd" d="M5.53093 3.77961C5.50687 3.74292 5.47677 3.70391 5.44669 3.66723C5.12781 3.27742 4.83598 2.21348 4.71866 1.54623C4.6615 1.23209 4.65246 0.998234 4.67352 0.938617L4.70062 0.885883L4.75174 0.833121L4.80591 0.798749L4.88413 0.775797L4.98941 0.771235L5.10072 0.803312L5.16389 0.844597L5.194 0.881293C5.22107 0.888172 5.43766 0.947792 5.6302 0.970722C6.18975 1.0441 7.05316 1.08766 7.8955 1.17021C7.85338 1.00512 7.87445 0.860653 7.94364 0.734539C8.04893 0.54193 8.26854 0.386004 8.58141 0.271355C9.06275 0.0970898 9.78172 0.0168258 10.5097 0.003068C11.5807 -0.0198617 12.6697 0.0902097 13.0217 0.184221C13.1751 0.225495 13.3015 0.305755 13.4068 0.420404C13.5211 0.546517 13.6054 0.720779 13.6926 0.904217C13.7648 1.05555 13.834 1.21376 13.9363 1.35363C14.0205 1.46369 14.1198 1.5623 14.2702 1.61733C14.4236 1.67465 14.6252 1.68381 14.8929 1.63566C15.2208 1.57834 15.6269 1.43848 16.1444 1.19313C16.8453 0.862946 17.3838 0.73913 17.7719 0.73913C18.0938 0.741423 18.3315 0.821656 18.4999 0.94777C18.7376 1.12662 18.8429 1.40866 18.8038 1.72968C18.7527 2.147 18.4548 2.63311 17.9885 2.96559C17.6425 3.21094 16.9717 3.40125 16.1835 3.52965C14.4567 3.81169 12.1433 3.8415 11.7973 3.84608C11.5897 3.84838 10.7023 3.98825 9.96525 4.33219C9.27032 4.6555 8.70475 5.17142 9.07177 5.96479C9.85395 7.65241 12.2997 7.20529 12.6006 7.15026C12.2817 6.91867 11.316 6.18034 11.0242 5.52685C10.8918 5.22647 10.8948 4.93983 11.0904 4.70824C11.2709 4.48812 11.6379 4.30239 12.2907 4.21984C16.4272 3.69475 17.9374 4.95818 18.2713 5.23105C18.7346 5.61168 19.1317 5.86621 19.4686 6.01525C19.7544 6.14136 19.9891 6.19179 20.1876 6.16427C20.3681 6.14134 20.5065 6.05194 20.6208 5.92582C20.7652 5.7699 20.8735 5.55894 20.9608 5.31818C21.3428 4.25424 21.2917 2.66292 21.4963 2.13554C21.6587 1.71363 21.9235 1.51416 22.1822 1.45913C22.4589 1.39722 22.7869 1.48204 23.0937 1.73197C23.5269 2.08509 23.9601 2.78673 24.1947 3.63971C24.4294 4.48582 24.4715 5.47869 24.1466 6.41193C25.5816 6.09091 26.7248 5.95333 26.8361 5.94875C27.5731 5.9304 28.0756 5.97856 28.4005 6.0634C28.6772 6.13677 28.8487 6.23996 28.9449 6.35461C29.1194 6.56097 29.0773 6.82237 28.8547 7.09523C28.4696 7.56758 27.513 8.09497 27.0828 8.27611C24.4655 9.38591 24.288 9.07635 21.8031 10.4109C21.0781 10.8007 20.7622 11.4404 20.3711 11.8623C20.0342 12.2223 19.6522 12.4447 19.0685 12.3851C17.79 12.259 16.8453 12.2475 16.1474 12.3324C15.5096 12.4126 15.0915 12.5731 14.8207 12.8093C14.55 13.0501 14.4296 13.3596 14.3635 13.7219C14.2913 14.1232 14.2912 14.5795 14.2672 15.0747C14.2642 15.1894 14.1378 15.2788 13.9874 15.2743C13.837 15.2697 13.7197 15.1734 13.7257 15.061C13.7498 14.5497 13.7528 14.0796 13.828 13.6669C13.9062 13.2175 14.0747 12.8345 14.4116 12.5387C14.7485 12.2406 15.263 12.0228 16.0602 11.9242C16.7972 11.8348 17.793 11.8417 19.1377 11.9747C19.3964 12.0022 19.5799 11.9242 19.7424 11.7981C19.8778 11.6903 19.9951 11.5528 20.1154 11.4014C20.4644 10.9635 20.8314 10.4269 21.4902 10.0715C23.9992 8.72553 24.1767 9.03507 26.8211 7.91381C27.149 7.77623 27.8258 7.41396 28.232 7.04479C28.3493 6.93932 28.4425 6.83384 28.4877 6.73295C28.5117 6.67563 28.5268 6.62288 28.4877 6.57931C28.4275 6.50594 28.2921 6.46236 28.0816 6.42338C27.7958 6.37064 27.3957 6.35 26.8542 6.36376C26.7398 6.36605 25.4733 6.52428 23.9451 6.88886C23.8007 7.17548 23.6172 7.45292 23.3885 7.71662C23.1569 7.98031 21.8994 8.92271 20.6629 9.68627C19.8176 10.2068 18.9813 10.6424 18.4819 10.7479C18.2292 10.8007 18.0306 10.7754 17.9013 10.7044C17.7629 10.6287 17.6636 10.4911 17.6937 10.2549C17.7208 10.0623 17.8441 9.77113 18.0998 9.36757C18.7436 8.35178 20.2328 7.5905 21.8182 7.05394C22.3868 6.86134 22.9704 6.69626 23.5269 6.55868C23.933 5.61857 23.9029 4.589 23.6653 3.72455C23.4547 2.96329 23.0847 2.33044 22.6996 2.0163C22.6184 1.9498 22.5372 1.89936 22.4559 1.87184C22.4138 1.85579 22.3717 1.84663 22.3296 1.8558C22.2814 1.86727 22.2393 1.89937 22.1972 1.94294C22.128 2.01631 22.0678 2.11949 22.0167 2.25478C21.8121 2.77758 21.8663 4.36659 21.4842 5.42824C21.2586 6.05193 20.8645 6.49447 20.2809 6.57243C20.0372 6.60453 19.7544 6.57702 19.4295 6.46466C19.0053 6.31791 18.4909 6.01753 17.8742 5.51308C17.5703 5.26314 16.1715 4.14647 12.381 4.62799C11.9387 4.68303 11.671 4.78161 11.5476 4.92836C11.4694 5.02237 11.4634 5.13473 11.4905 5.25168C11.5266 5.40072 11.6168 5.55894 11.7372 5.71715C12.1704 6.29269 12.9615 6.84299 13.0608 6.91178C13.2774 7.06541 15.3261 8.50082 16.1294 9.70004C16.4994 10.2504 16.5926 10.7617 16.2738 11.1148C16.0632 11.351 15.6571 11.5367 14.9681 11.6032C14.4748 11.6491 14.1499 11.4542 13.9453 11.0896C13.7137 10.6723 13.6565 9.99353 13.5963 9.32169C13.5512 8.80348 13.5031 8.28987 13.3436 7.92758C13.2714 7.76249 13.1842 7.62948 13.0338 7.56986C12.9495 7.53547 12.8442 7.53319 12.7209 7.55382C12.3659 7.61803 9.4869 8.10644 8.56033 6.10239C8.08501 5.07514 8.78595 4.39641 9.67943 3.97909C10.5278 3.5847 11.5506 3.43566 11.7883 3.43337C12.1282 3.42878 14.3845 3.39895 16.0692 3.12379C16.743 3.01602 17.3237 2.87389 17.6185 2.66293C17.9855 2.40154 18.2232 2.02088 18.2623 1.69069C18.2833 1.50954 18.2533 1.34446 18.1179 1.24357C18.0126 1.16561 17.8471 1.1381 17.6185 1.16103C17.3116 1.19313 16.9206 1.31464 16.4302 1.54623C15.1637 2.1424 14.4327 2.15619 13.9874 1.97275C13.6685 1.83976 13.47 1.59898 13.3256 1.333C13.2263 1.14956 13.1511 0.954669 13.0578 0.796454C12.9977 0.695563 12.9495 0.603823 12.8412 0.574015C12.3809 0.452487 10.5278 0.308031 9.32145 0.516691C8.91232 0.587773 8.57839 0.686384 8.45505 0.874407C8.39187 0.973005 8.40691 1.09223 8.49416 1.23898C8.6175 1.25503 8.73782 1.27337 8.85514 1.29171C9.41169 1.38343 9.89905 1.51184 10.2179 1.69069C10.612 1.90852 10.7926 2.19973 10.6481 2.58266L10.5849 2.67438C10.5188 2.75005 10.3353 2.91972 10.1127 3.04125C9.88101 3.16736 9.60724 3.23388 9.35153 3.17426C9.18005 3.13299 9.00556 3.03896 8.85816 2.84176C8.70172 2.6331 8.56937 2.28458 8.50319 1.72738C8.434 1.7228 8.36177 1.70905 8.28957 1.67924C8.25347 1.66319 8.21738 1.64484 8.18128 1.61962C7.22763 1.50497 6.18372 1.46369 5.53993 1.37885C5.42561 1.36509 5.32336 1.34905 5.23311 1.33071C5.23913 1.38344 5.24814 1.43846 5.25716 1.4912C5.36546 2.10572 5.61216 3.08941 5.90698 3.44711C6.08447 3.66265 6.16266 3.8071 6.18071 3.89652L6.18372 3.97909L6.1687 4.04328L6.13863 4.09604L6.09048 4.14648L6.03029 4.18544L5.97014 4.21295L5.89794 4.22902L5.80467 4.2382C5.62417 4.24508 5.27221 4.15794 4.85405 4.08915C4.34564 4.00431 3.70186 3.94699 3.20548 4.28864C3.07913 4.37577 2.90764 4.41476 2.70608 4.40788C2.50152 4.39871 2.25484 4.34367 2.00214 4.28405C1.82164 4.24278 1.6411 4.2015 1.47865 4.19233C1.38539 4.18774 1.29817 4.18775 1.238 4.23591C1.17182 4.29094 1.14174 4.38265 1.12971 4.52023C1.0545 5.38468 1.28012 6.03359 1.64714 6.43715C1.85772 6.66874 2.11345 6.81321 2.37517 6.8476C2.80537 6.90263 3.19945 6.64352 3.41304 6.0978C3.50028 5.87538 3.70485 5.73779 4.01471 5.68275C4.35766 5.61855 4.86308 5.67359 5.46175 5.8341C6.37027 6.08174 7.51644 6.57243 8.60245 7.17777C9.97727 7.94363 11.2558 8.89291 11.8605 9.75048C12.3087 10.3879 12.387 10.9841 11.9658 11.4473C11.5446 11.9128 10.5669 12.2659 8.77692 12.3461C8.19631 12.3714 7.76614 12.2888 7.44424 12.1352C7.26374 12.048 7.11633 11.9403 6.99299 11.8096C6.53873 11.782 6.3883 11.9426 0.889025 11.5619C0.762674 11.5528 0.66641 11.5551 0.591201 11.5711C0.576159 11.5734 0.555094 11.5803 0.546068 11.5849C0.555094 11.6055 0.5882 11.6858 0.636334 11.7385C0.877002 11.9907 1.43055 12.2613 2.07434 12.3048C5.34442 12.5319 5.29926 12.5708 8.50918 13.0386C8.59642 13.0501 8.67164 13.0959 8.70774 13.1601C8.74384 13.2243 8.73483 13.2954 8.6867 13.3527C8.56636 13.4926 7.61871 14.607 7.30885 15.5288C7.14339 16.0263 7.13739 16.4758 7.77817 16.556C7.8985 16.5721 8.00979 16.517 8.13915 16.4368C8.33169 16.3198 8.53628 16.141 8.76793 15.93C9.52002 15.2444 10.5398 14.2195 12.2065 13.527C12.3358 13.472 12.5013 13.5087 12.5735 13.6096C12.6457 13.7082 12.5975 13.8343 12.4652 13.8893C10.597 14.6666 9.58317 15.8887 8.82507 16.5078C8.59944 16.6936 8.38886 16.8289 8.19332 16.9023C8.02184 16.9642 7.85336 16.9871 7.6879 16.9642C7.37503 16.9252 7.14641 16.8289 6.98697 16.7005C6.75232 16.5102 6.65905 16.2396 6.68011 15.9209C6.73426 15.0977 7.59768 13.9168 8.01885 13.3871C5.22108 12.979 5.13081 12.9331 2.02318 12.7176C1.43956 12.6763 0.916105 12.486 0.555102 12.2613C0.290367 12.0985 0.112886 11.915 0.0406854 11.7591C-0.0285068 11.6032 -0.00747476 11.4633 0.0887926 11.3556C0.20311 11.2271 0.461849 11.1171 0.937169 11.1492C4.75176 11.4152 6.00021 11.4175 6.55676 11.406C5.55798 10.2458 5.75356 10.0348 4.48403 8.71405C3.97261 8.18438 4.25537 7.4965 4.64345 7.20988C4.88111 7.03103 5.16091 6.99434 5.38052 7.09294C6.0965 7.41166 6.46952 7.91151 6.67409 8.48705C6.86361 9.02131 6.90573 9.61978 6.97191 10.1793C7.01403 10.5438 7.0652 10.8901 7.18854 11.1836C7.29684 11.4404 7.45626 11.6536 7.73303 11.7843C7.97671 11.9013 8.30462 11.954 8.74685 11.9334C10.2871 11.8646 11.1565 11.6147 11.5205 11.2134C11.8575 10.8373 11.698 10.3535 11.2979 9.83302C10.6932 9.05112 9.526 8.20501 8.28355 7.51254C7.0411 6.82006 5.72345 6.27893 4.8029 6.11613C4.53816 6.06798 4.31255 6.05192 4.14108 6.08402C4.03879 6.10237 3.96356 6.14137 3.93348 6.21703C3.61159 7.03333 2.92568 7.33827 2.2819 7.25573C1.89983 7.20528 1.51177 7.01269 1.20191 6.67104C0.783745 6.21474 0.500948 5.4764 0.58819 4.49272C0.612257 4.19234 0.741625 4.01577 0.898059 3.91259C1.13572 3.75896 1.48467 3.75437 1.86072 3.82546C2.09236 3.86902 2.33906 3.93782 2.55265 3.9745C2.62185 3.98597 2.68804 3.99284 2.74519 3.99513C2.7843 3.99513 2.81738 3.99744 2.84144 3.98139C3.45816 3.55719 4.23733 3.57092 4.88112 3.66952C5.10073 3.70392 5.35043 3.74751 5.53093 3.77961ZM6.46653 10.4888C6.45449 10.3994 6.44246 10.3077 6.43043 10.216C6.36725 9.68169 6.33114 9.10617 6.15064 8.59484C5.98518 8.12937 5.69639 7.71432 5.11879 7.45521C5.10676 7.45751 5.08569 7.4667 5.07065 7.47358C5.0195 7.50109 4.97138 7.54237 4.92926 7.59281C4.73974 7.80835 4.64045 8.17522 4.92023 8.46872C5.90095 9.48909 6.01227 9.84907 6.46653 10.4888ZM4.76981 1.13351L4.7307 1.08993C4.74273 1.10828 4.75477 1.12205 4.76981 1.13351ZM5.203 0.892741L5.21504 0.906512C5.21203 0.901926 5.20901 0.897327 5.203 0.892741ZM9.05069 1.7526C9.09582 2.1126 9.17403 2.36943 9.2703 2.54369C9.34551 2.67898 9.41471 2.75465 9.50797 2.77758C9.59521 2.79822 9.68245 2.76151 9.76066 2.72252C9.92311 2.64456 10.0976 2.47948 10.1337 2.44279C10.1878 2.26394 10.0886 2.12866 9.89907 2.02319C9.68849 1.90624 9.39064 1.82139 9.05069 1.7526ZM13.9844 8.19584C14.0626 8.52602 14.1047 8.90896 14.1378 9.29418C14.192 9.91328 14.2311 10.5416 14.4447 10.9268C14.541 11.0987 14.6703 11.2134 14.899 11.1928C15.3803 11.1469 15.6781 11.046 15.8285 10.8809C15.9248 10.7709 15.9458 10.6356 15.9188 10.4865C15.8887 10.3008 15.7864 10.099 15.645 9.88805C15.266 9.31939 14.5951 8.698 13.9844 8.19584ZM23.2531 7.06542C22.853 7.17319 22.4409 7.29471 22.0378 7.43229C20.5757 7.92757 19.1828 8.61087 18.5902 9.54869C18.4097 9.82844 18.3014 10.044 18.2563 10.2045C18.2382 10.2595 18.2352 10.3237 18.2352 10.3581C18.2803 10.3535 18.3616 10.3444 18.4247 10.326C18.5601 10.2893 18.7195 10.2274 18.894 10.1495C20.2869 9.52347 22.6214 7.84731 22.9373 7.48502C23.0576 7.34974 23.1599 7.20988 23.2531 7.06542Z" fill="#E61A1A"/>
</svg>
